#!OML:ASF I:\salsa\salsa 7_09\Patient 1\Session 1\dancerfemale.ASF
:FULLY-SPECIFIED
:DEGREES
973
root 17.887 15.8366 2.9897 -711.854 -889.599 365.31
lowerback -1.95205 2.90005 8.7779
upperback -7.3703 3.44627 -2.23651
thorax -6.00078 0.922682 -7.36249
lowerneck 2.90972 5.98786 -3.53938
upperneck 4.83115 7.62695 4.79755
head 0.677685 3.71973 2.05198
rclavicle 3.0911e-014 7.15625e-015
rhumerus -29.2624 16.1182 -112.796
rradius 103.956
rwrist -31.2046
rhand -13.564 67.7174
rfingers 7.12502
rthumb 12.5494 38.1143
lclavicle 3.0911e-014 7.15625e-015
lhumerus -21.4767 -19.2376 111.998
lradius 120.301
lwrist 0.967673
lhand -45.975 53.2185
lfingers 7.12502
lthumb -18.7217 802.338
rfemur 4.02393 0.0767336 22.8301
rtibia 15.6601
rfoot -16.3649 -19.138
rtoes -28.7208
lfemur -38.4723 0.028023 -17.4351
ltibia 52.2093
lfoot -24.473 1.43297
ltoes -29.9372
974
root 17.8929 15.8236 3.06847 -712.086 -886.334 366.051
lowerback -1.3584 2.58114 10.1235
upperback -7.43897 3.14457 -1.90776
thorax -6.45563 0.681032 -7.8045
lowerneck 2.49784 5.88475 -2.87181
upperneck 4.92317 7.54773 3.93785
head 0.837958 3.69615 1.68323
rclavicle 1.75924e-014 -3.97569e-015
rhumerus -26.3308 19.3963 -113.369
rradius 102.671
rwrist -30.0746
rhand -12.9996 66.5183
rfingers 7.12502
rthumb 13.0936 36.9494
lclavicle 1.75924e-014 -3.97569e-015
lhumerus -22.3547 -20.5539 113.821
lradius 118.613
lwrist -0.759297
lhand -43.8608 49.4018
lfingers 7.12502
lthumb -16.6872 798.705
rfemur 4.05435 -4.44701 23.3765
rtibia 15.5413
rfoot -15.5548 -16.7762
rtoes -30.0345
lfemur -39.5897 2.72282 -18.8779
ltibia 52.5685
lfoot -24.6461 3.75105
ltoes -27.0775
975
root 17.942 15.8224 3.10231 -712.765 -883.37 367.106
lowerback -0.558055 2.29488 10.7989
upperback -7.5912 2.91928 -1.26856
thorax -7.14939 0.500977 -7.53234
lowerneck 2.2292 5.73856 -3.71345
upperneck 5.60637 7.29542 4.61592
head 1.05219 3.55742 2.07244
rclavicle 8.64713e-015 -2.62396e-014
rhumerus -23.7365 22.72 -113.798
rradius 101.393
rwrist -29.1203
rhand -11.2196 65.7065
rfingers 7.12502
rthumb 14.809 36.2556
lclavicle 8.64713e-015 -2.62396e-014
lhumerus -24.3147 -21.4718 116.185
lradius 117.174
lwrist -2.49795
lhand -42.0786 45.3786
lfingers 7.12502
lthumb -14.9709 794.817
rfemur 4.18452 -7.68761 24.4906
rtibia 15.895
rfoot -14.8955 -15.0447
rtoes -31.2192
lfemur -40.1844 5.64175 -19.8724
ltibia 52.7607
lfoot -25.0219 6.14431
ltoes -25.0653
976
root 17.9743 15.8098 3.12454 -713.428 -880.678 367.792
lowerback -0.00268352 2.19918 10.9422
upperback -7.63263 2.91161 -0.615711
thorax -7.54727 0.487831 -6.93154
lowerneck 2.57143 5.2045 -4.21881
upperneck 5.29633 6.59057 4.33708
head 0.919889 3.19477 2.05764
rclavicle -1.28216e-014 -1.78906e-014
rhumerus -20.8807 26.0556 -113.456
rradius 100.218
rwrist -28.8654
rhand -10.8909 65.3161
rfingers 7.12502
rthumb 15.1256 35.8888
lclavicle -1.28216e-014 -1.78906e-014
lhumerus -24.0881 -25.2435 117.168
lradius 115.077
lwrist -2.52497
lhand -41.1529 45.917
lfingers 7.12502
lthumb -14.079 795.42
rfemur 4.3947 -10.5346 25.0907
rtibia 16.2624
rfoot -14.172 -13.4399
rtoes -32.1694
lfemur -40.4285 8.72166 -21.4476
ltibia 52.7552
lfoot -25.4093 8.50358
ltoes -24.0795
977
root 17.99 15.8086 3.13186 -714.011 -878.255 368.26
lowerback 0.437122 2.13806 10.912
upperback -7.70485 2.91735 -0.170923
thorax -7.90501 0.485018 -6.45477
lowerneck 2.44493 4.72934 -4.29233
upperneck 5.56772 5.95417 4.22375
head 1.05683 2.87396 2.05026
rclavicle 1.21259e-014 1.74931e-014
rhumerus -17.9299 29.1601 -113.19
rradius 99.0284
rwrist -28.8054
rhand -11.0234 65.1109
rfingers 7.12502
rthumb 14.998 35.674
lclavicle 1.21259e-014 1.74931e-014
lhumerus -24.303 -28.1899 118.244
lradius 113.385
lwrist -2.42753
lhand -39.5265 45.5393
lfingers 7.12502
lthumb -12.5113 795.145
rfemur 4.54617 -12.4701 25.526
rtibia 16.7786
rfoot -13.6023 -12.6282
rtoes -32.6167
lfemur -40.4922 10.5544 -22.4081
ltibia 52.3534
lfoot -25.9663 10.0504
ltoes -19.0123
978
root 17.9931 15.8203 3.12369 -714.359 -876.053 368.285
lowerback 0.606341 2.14765 10.4156
upperback -7.73894 2.95385 0.12958
thorax -8.05959 0.540698 -5.86345
lowerneck 2.07992 4.24325 -5.19501
upperneck 6.22261 5.25466 4.94988
head 1.3195 2.51078 2.47915
rclavicle 5.06901e-015 -3.57812e-014
rhumerus -14.6644 31.7755 -112.497
rradius 97.8146
rwrist -28.6094
rhand -10.5645 64.1532
rfingers 7.12502
rthumb 15.4399 34.7498
lclavicle 5.06901e-015 -3.57812e-014
lhumerus -21.5008 -34.6838 116.804
lradius 110.592
lwrist -0.0535731
lhand -39.4769 47.9054
lfingers 7.12502
lthumb -12.4635 797.514
rfemur 4.55197 -13.2221 25.7344
rtibia 17.5508
rfoot -13.251 -12.9152
rtoes -32.8252
lfemur -40.1449 11.6887 -23.5259
ltibia 51.7376
lfoot -26.6792 11.8621
ltoes -16.0073
